# Blender 5.2.0 LTS
# www.blender.org
mtllib car.mtl
o Cylinder.001
v -0.974736 -0.823439 -4.695229
v 0.974736 -0.823439 -4.695229
v -0.974736 -0.901836 -4.687507
v 0.974736 -0.901836 -4.687507
v -0.974736 -0.977221 -4.664639
v 0.974736 -0.977221 -4.664639
v -0.974736 -1.046696 -4.627504
v 0.974736 -1.046696 -4.627504
v -0.974736 -1.107592 -4.577528
v 0.974736 -1.107592 -4.577528
v -0.974736 -1.157567 -4.516633
v 0.974736 -1.157567 -4.516633
v -0.974736 -1.194702 -4.447158
v 0.974736 -1.194703 -4.447158
v -0.974736 -1.217570 -4.371773
v 0.974736 -1.217570 -4.371773
v -0.974736 -1.225292 -4.293375
v 0.974736 -1.225292 -4.293375
v -0.974736 -1.217570 -4.214978
v 0.974736 -1.217570 -4.214978
v -0.974736 -1.194702 -4.139593
v 0.974736 -1.194703 -4.139593
v -0.974736 -1.157567 -4.070118
v 0.974736 -1.157567 -4.070118
v -0.974736 -1.107592 -4.009223
v 0.974736 -1.107592 -4.009223
v -0.974736 -1.046696 -3.959247
v 0.974736 -1.046696 -3.959247
v -0.974736 -0.977221 -3.922112
v 0.974736 -0.977221 -3.922112
v -0.974736 -0.901836 -3.899244
v 0.974736 -0.901836 -3.899244
v -0.974736 -0.823439 -3.891523
v 0.974736 -0.823439 -3.891523
v -0.974736 -0.745041 -3.899244
v 0.974736 -0.745041 -3.899244
v -0.974736 -0.669656 -3.922112
v 0.974736 -0.669656 -3.922112
v -0.974736 -0.600181 -3.959247
v 0.974736 -0.600181 -3.959247
v -0.974736 -0.539286 -4.009223
v 0.974736 -0.539286 -4.009223
v -0.974736 -0.489310 -4.070118
v 0.974736 -0.489310 -4.070118
v -0.974736 -0.452175 -4.139593
v 0.974736 -0.452175 -4.139593
v -0.974736 -0.429307 -4.214978
v 0.974736 -0.429307 -4.214978
v -0.974736 -0.421586 -4.293375
v 0.974736 -0.421586 -4.293375
v -0.974736 -0.429307 -4.371773
v 0.974736 -0.429307 -4.371773
v -0.974736 -0.452175 -4.447158
v 0.974736 -0.452175 -4.447158
v -0.974736 -0.489310 -4.516633
v 0.974736 -0.489310 -4.516633
v -0.974736 -0.539286 -4.577528
v 0.974736 -0.539286 -4.577528
v -0.974736 -0.600181 -4.627504
v 0.974736 -0.600181 -4.627504
v -0.974736 -0.669656 -4.664639
v 0.974736 -0.669656 -4.664639
v -0.974736 -0.745041 -4.687507
v 0.974736 -0.745041 -4.687507
v 1.000000 -0.110070 -1.000000
v 1.000000 -1.000000 -1.000000
v 1.000000 -0.257863 1.000000
v 1.000000 -1.000000 1.000000
v -1.000000 -0.110070 -1.000000
v -1.000000 -1.000000 -1.000000
v -1.000000 -0.257863 1.000000
v -1.000000 -1.000000 1.000000
v 1.000000 -1.000000 -3.519472
v -1.000000 -1.000000 -3.519472
v 1.000000 -0.110070 -3.519472
v -1.000000 -0.110070 -3.519472
v 1.000000 -1.000000 -4.987522
v -1.000000 -1.000000 -4.987522
v 1.000000 -0.257863 -4.987522
v -1.000000 -0.257863 -4.987522
v -0.939049 0.565114 -1.266919
v 0.939049 0.565114 -1.266919
v -0.939049 0.565114 -3.252553
v 0.939049 0.565114 -3.252553
v -1.000000 -1.000000 -0.500000
v -1.000000 -1.000000 0.500000
v 1.000000 -0.147018 -0.500000
v 1.000000 -0.183967 0.000000
v 1.000000 -0.220915 0.500000
v -1.000000 -0.220915 0.500000
v -1.000000 -0.183967 0.000000
v -1.000000 -0.147018 -0.500000
v 1.000000 -1.000000 0.500000
v -0.621693 -0.495123 0.500000
v 1.000000 -1.000000 -0.500000
v 1.000000 -0.147018 -3.886485
v 1.000000 -0.183967 -4.253497
v 1.000000 -0.220915 -4.620510
v -1.000000 -0.220915 -4.620510
v -1.000000 -0.183967 -4.253497
v -1.000000 -0.147018 -3.886485
v 1.000000 -1.000000 -3.886485
v -0.621693 -1.000000 0.500000
v 1.000000 -1.000000 -4.709919
v -1.000000 -1.000000 -4.716523
v -1.000000 -1.000000 -3.886485
v 1.000000 -0.423291 -1.000000
v -1.000000 -0.519067 1.000000
v 1.000000 -0.519067 1.000000
v -1.000000 -0.423291 -1.000000
v 1.000000 -0.423291 -3.519472
v -1.000000 -0.423291 -3.519472
v 1.000000 -0.519067 -4.987522
v -1.000000 -0.519067 -4.987522
v 1.000000 -0.447235 -0.500000
v 1.000000 -0.471179 0.000000
v 1.000000 -0.495123 0.500000
v -1.000000 -0.495123 0.500000
v -1.000000 -0.471179 0.000000
v -1.000000 -0.447235 -0.500000
v -1.000000 -0.447235 -3.886485
v -1.000000 -0.471179 -4.253497
v -1.000000 -0.495123 -4.716523
v 1.000000 -0.447235 -3.886485
v 1.000000 -0.471179 -4.253497
v 1.000000 -0.495123 -4.709919
v 0.585603 -1.000000 0.500000
v 0.585603 -1.000000 0.000000
v 0.585603 -1.000000 -0.500000
v 0.585603 -0.447235 -0.500000
v 0.585603 -0.471179 0.000000
v 0.585603 -0.495123 0.500000
v 0.585603 -1.000000 -3.886485
v 0.585603 -1.000000 -4.253497
v 0.585603 -1.000000 -4.709919
v 0.585603 -0.447235 -3.886485
v 0.585603 -0.471179 -4.253497
v 0.585603 -0.495123 -4.709919
v -0.621693 -1.000000 0.000000
v -0.621693 -1.000000 -0.500000
v -0.621693 -0.471179 0.000000
v -0.621693 -0.447235 -0.500000
v -0.621693 -1.000000 -4.716523
v -0.621693 -1.000000 -4.253497
v -0.621693 -1.000000 -3.886485
v -0.621693 -0.447235 -3.886485
v -0.621693 -0.471179 -4.253497
v -0.621693 -0.495123 -4.716523
v -0.974736 -0.823439 -0.401853
v 0.974736 -0.823439 -0.401853
v -0.974736 -0.901836 -0.394131
v 0.974736 -0.901836 -0.394131
v -0.974736 -0.977221 -0.371264
v 0.974736 -0.977221 -0.371264
v -0.974736 -1.046696 -0.334128
v 0.974736 -1.046696 -0.334128
v -0.974736 -1.107592 -0.284153
v 0.974736 -1.107592 -0.284153
v -0.974736 -1.157567 -0.223258
v 0.974736 -1.157567 -0.223258
v -0.974736 -1.194702 -0.153782
v 0.974736 -1.194703 -0.153782
v -0.974736 -1.217570 -0.078397
v 0.974736 -1.217570 -0.078397
v -0.974736 -1.225292 0.000000
v 0.974736 -1.225292 0.000000
v -0.974736 -1.217570 0.078398
v 0.974736 -1.217570 0.078398
v -0.974736 -1.194702 0.153783
v 0.974736 -1.194703 0.153783
v -0.974736 -1.157567 0.223258
v 0.974736 -1.157567 0.223258
v -0.974736 -1.107592 0.284153
v 0.974736 -1.107592 0.284153
v -0.974736 -1.046696 0.334129
v 0.974736 -1.046696 0.334129
v -0.974736 -0.977221 0.371264
v 0.974736 -0.977221 0.371264
v -0.974736 -0.901836 0.394132
v 0.974736 -0.901836 0.394132
v -0.974736 -0.823439 0.401853
v 0.974736 -0.823439 0.401853
v -0.974736 -0.745041 0.394132
v 0.974736 -0.745041 0.394132
v -0.974736 -0.669656 0.371264
v 0.974736 -0.669656 0.371264
v -0.974736 -0.600181 0.334129
v 0.974736 -0.600181 0.334129
v -0.974736 -0.539286 0.284153
v 0.974736 -0.539286 0.284153
v -0.974736 -0.489310 0.223258
v 0.974736 -0.489310 0.223258
v -0.974736 -0.452175 0.153783
v 0.974736 -0.452175 0.153783
v -0.974736 -0.429307 0.078398
v 0.974736 -0.429307 0.078398
v -0.974736 -0.421586 0.000000
v 0.974736 -0.421586 0.000000
v -0.974736 -0.429307 -0.078397
v 0.974736 -0.429307 -0.078397
v -0.974736 -0.452175 -0.153782
v 0.974736 -0.452175 -0.153782
v -0.974736 -0.489310 -0.223258
v 0.974736 -0.489310 -0.223258
v -0.974736 -0.539286 -0.284153
v 0.974736 -0.539286 -0.284153
v -0.974736 -0.600181 -0.334128
v 0.974736 -0.600181 -0.334128
v -0.974736 -0.669656 -0.371264
v 0.974736 -0.669656 -0.371264
v -0.974736 -0.745041 -0.394131
v 0.974736 -0.745041 -0.394131
vn -0.0000 -0.0980 -0.9952
vn -0.0000 -0.2903 -0.9569
vn -0.0000 -0.4714 -0.8819
vn -0.0000 -0.6344 -0.7730
vn -0.0000 -0.7730 -0.6344
vn -0.0000 -0.8819 -0.4714
vn -0.0000 -0.9569 -0.2903
vn -0.0000 -0.9952 -0.0980
vn -0.0000 -0.9952 0.0980
vn -0.0000 -0.9569 0.2903
vn -0.0000 -0.8819 0.4714
vn -0.0000 -0.7730 0.6344
vn -0.0000 -0.6344 0.7730
vn -0.0000 -0.4714 0.8819
vn -0.0000 -0.2903 0.9569
vn -0.0000 -0.0980 0.9952
vn -0.0000 0.0980 0.9952
vn -0.0000 0.2903 0.9569
vn -0.0000 0.4714 0.8819
vn -0.0000 0.6344 0.7730
vn -0.0000 0.7730 0.6344
vn -0.0000 0.8819 0.4714
vn -0.0000 0.9569 0.2903
vn -0.0000 0.9952 0.0980
vn -0.0000 0.9952 -0.0980
vn -0.0000 0.9569 -0.2903
vn -0.0000 0.8819 -0.4714
vn -0.0000 0.7730 -0.6344
vn -0.0000 0.6344 -0.7730
vn -0.0000 0.4714 -0.8819
vn 1.0000 -0.0000 -0.0000
vn -0.0000 0.2903 -0.9569
vn -0.0000 0.0980 -0.9952
vn -1.0000 -0.0000 -0.0000
vn -0.0000 0.9973 0.0737
vn -0.0000 -0.0000 1.0000
vn -0.0000 -1.0000 -0.0000
vn -0.0000 0.3676 0.9300
vn -0.0000 0.9950 -0.1002
vn -0.0000 -0.0000 -1.0000
vn -0.0000 1.0000 -0.0000
vn -0.9960 0.0899 -0.0000
vn -0.0000 0.3676 -0.9300
vn 0.9959 0.0899 -0.0000
vn -0.0000 -0.9986 0.0524
vn -0.0000 -0.9989 -0.0478
vn -0.0000 -0.9987 0.0516
vn -0.0000 -0.9979 0.0651
vt 1.000000 0.500000
vt 1.000000 1.000000
vt 0.968750 1.000000
vt 0.968750 0.500000
vt 0.937500 1.000000
vt 0.937500 0.500000
vt 0.906250 1.000000
vt 0.906250 0.500000
vt 0.875000 1.000000
vt 0.875000 0.500000
vt 0.843750 1.000000
vt 0.843750 0.500000
vt 0.812500 1.000000
vt 0.812500 0.500000
vt 0.781250 1.000000
vt 0.781250 0.500000
vt 0.750000 1.000000
vt 0.750000 0.500000
vt 0.718750 1.000000
vt 0.718750 0.500000
vt 0.687500 1.000000
vt 0.687500 0.500000
vt 0.656250 1.000000
vt 0.656250 0.500000
vt 0.625000 1.000000
vt 0.625000 0.500000
vt 0.593750 1.000000
vt 0.593750 0.500000
vt 0.562500 1.000000
vt 0.562500 0.500000
vt 0.531250 1.000000
vt 0.531250 0.500000
vt 0.500000 1.000000
vt 0.500000 0.500000
vt 0.468750 1.000000
vt 0.468750 0.500000
vt 0.437500 1.000000
vt 0.437500 0.500000
vt 0.406250 1.000000
vt 0.406250 0.500000
vt 0.375000 1.000000
vt 0.375000 0.500000
vt 0.343750 1.000000
vt 0.343750 0.500000
vt 0.312500 1.000000
vt 0.312500 0.500000
vt 0.281250 1.000000
vt 0.281250 0.500000
vt 0.250000 1.000000
vt 0.250000 0.500000
vt 0.218750 1.000000
vt 0.218750 0.500000
vt 0.187500 1.000000
vt 0.187500 0.500000
vt 0.156250 1.000000
vt 0.156250 0.500000
vt 0.125000 1.000000
vt 0.125000 0.500000
vt 0.093750 1.000000
vt 0.093750 0.500000
vt 0.062500 1.000000
vt 0.062500 0.500000
vt 0.296822 0.485388
vt 0.250000 0.490000
vt 0.203178 0.485388
vt 0.158156 0.471731
vt 0.116663 0.449553
vt 0.080294 0.419706
vt 0.050447 0.383337
vt 0.028269 0.341844
vt 0.014612 0.296822
vt 0.010000 0.250000
vt 0.014612 0.203178
vt 0.028269 0.158156
vt 0.050447 0.116663
vt 0.080294 0.080294
vt 0.116663 0.050447
vt 0.158156 0.028269
vt 0.203178 0.014612
vt 0.250000 0.010000
vt 0.296822 0.014612
vt 0.341844 0.028269
vt 0.383337 0.050447
vt 0.419706 0.080294
vt 0.449553 0.116663
vt 0.471731 0.158156
vt 0.485388 0.203178
vt 0.490000 0.250000
vt 0.485388 0.296822
vt 0.471731 0.341844
vt 0.449553 0.383337
vt 0.419706 0.419706
vt 0.383337 0.449553
vt 0.341844 0.471731
vt 0.031250 1.000000
vt 0.031250 0.500000
vt 0.000000 1.000000
vt 0.000000 0.500000
vt 0.750000 0.490000
vt 0.796822 0.485388
vt 0.841844 0.471731
vt 0.883337 0.449553
vt 0.919706 0.419706
vt 0.949553 0.383337
vt 0.971731 0.341844
vt 0.985388 0.296822
vt 0.990000 0.250000
vt 0.985388 0.203178
vt 0.971731 0.158156
vt 0.949553 0.116663
vt 0.919706 0.080294
vt 0.883337 0.050447
vt 0.841844 0.028269
vt 0.796822 0.014612
vt 0.750000 0.010000
vt 0.703178 0.014612
vt 0.658156 0.028269
vt 0.616663 0.050447
vt 0.580294 0.080294
vt 0.550447 0.116663
vt 0.528269 0.158156
vt 0.514612 0.203178
vt 0.510000 0.250000
vt 0.514612 0.296822
vt 0.528269 0.341844
vt 0.550447 0.383337
vt 0.580294 0.419706
vt 0.616663 0.449553
vt 0.658156 0.471731
vt 0.703178 0.485388
vt 0.625000 0.687500
vt 0.625000 0.062500
vt 0.625000 0.000000
vt 0.625000 0.750000
vt 0.537010 0.750000
vt 0.537010 1.000000
vt 0.537010 0.187500
vt 0.625000 0.187500
vt 0.625000 0.250000
vt 0.537010 0.250000
vt 0.125000 0.687500
vt 0.175559 0.687500
vt 0.306639 0.687500
vt 0.375000 0.687500
vt 0.375000 0.750000
vt 0.125000 0.750000
vt 0.537010 0.687500
vt 0.537010 0.500000
vt 0.537010 0.250000
vt 0.306639 0.500000
vt 0.175559 0.500000
vt 0.625000 0.562500
vt 0.537010 0.562500
vt 0.625000 0.625000
vt 0.537010 0.625000
vt 0.375000 0.562500
vt 0.306639 0.562500
vt 0.175559 0.562500
vt 0.125000 0.562500
vt 0.375000 0.062500
vt 0.537010 0.062500
vt 0.537010 0.125000
vt 0.375000 0.125000
vt 0.537010 0.000000
vt 0.625000 0.125000
vt 0.375000 0.187500
vt 0.375000 0.250000
vt 0.375000 0.000000
vt 0.375000 0.625000
vt 0.194587 0.562500
vt 0.125000 0.625000
vt 0.194587 0.500000
s 0
usemtl 
f 1/1/1 2/2/1 4/3/1 3/4/1
f 3/4/2 4/3/2 6/5/2 5/6/2
f 5/6/3 6/5/3 8/7/3 7/8/3
f 7/8/4 8/7/4 10/9/4 9/10/4
f 9/10/5 10/9/5 12/11/5 11/12/5
f 11/12/6 12/11/6 14/13/6 13/14/6
f 13/14/7 14/13/7 16/15/7 15/16/7
f 15/16/8 16/15/8 18/17/8 17/18/8
f 17/18/9 18/17/9 20/19/9 19/20/9
f 19/20/10 20/19/10 22/21/10 21/22/10
f 21/22/11 22/21/11 24/23/11 23/24/11
f 23/24/12 24/23/12 26/25/12 25/26/12
f 25/26/13 26/25/13 28/27/13 27/28/13
f 27/28/14 28/27/14 30/29/14 29/30/14
f 29/30/15 30/29/15 32/31/15 31/32/15
f 31/32/16 32/31/16 34/33/16 33/34/16
f 33/34/17 34/33/17 36/35/17 35/36/17
f 35/36/18 36/35/18 38/37/18 37/38/18
f 37/38/19 38/37/19 40/39/19 39/40/19
f 39/40/20 40/39/20 42/41/20 41/42/20
f 41/42/21 42/41/21 44/43/21 43/44/21
f 43/44/22 44/43/22 46/45/22 45/46/22
f 45/46/23 46/45/23 48/47/23 47/48/23
f 47/48/24 48/47/24 50/49/24 49/50/24
f 49/50/25 50/49/25 52/51/25 51/52/25
f 51/52/26 52/51/26 54/53/26 53/54/26
f 53/54/27 54/53/27 56/55/27 55/56/27
f 55/56/28 56/55/28 58/57/28 57/58/28
f 57/58/29 58/57/29 60/59/29 59/60/29
f 59/60/30 60/59/30 62/61/30 61/62/30
f 4/63/31 2/64/31 64/65/31 62/66/31 60/67/31 58/68/31 56/69/31 54/70/31 52/71/31 50/72/31 48/73/31 46/74/31 44/75/31 42/76/31 40/77/31 38/78/31 36/79/31 34/80/31 32/81/31 30/82/31 28/83/31 26/84/31 24/85/31 22/86/31 20/87/31 18/88/31 16/89/31 14/90/31 12/91/31 10/92/31 8/93/31 6/94/31
f 61/62/32 62/61/32 64/95/32 63/96/32
f 63/96/33 64/95/33 2/97/33 1/98/33
f 1/99/34 3/100/34 5/101/34 7/102/34 9/103/34 11/104/34 13/105/34 15/106/34 17/107/34 19/108/34 21/109/34 23/110/34 25/111/34 27/112/34 29/113/34 31/114/34 33/115/34 35/116/34 37/117/34 39/118/34 41/119/34 43/120/34 45/121/34 47/122/34 49/123/34 51/124/34 53/125/34 55/126/34 57/127/34 59/128/34 61/129/34 63/130/34
f 149/1/1 150/2/1 152/3/1 151/4/1
f 151/4/2 152/3/2 154/5/2 153/6/2
f 153/6/3 154/5/3 156/7/3 155/8/3
f 155/8/4 156/7/4 158/9/4 157/10/4
f 157/10/5 158/9/5 160/11/5 159/12/5
f 159/12/6 160/11/6 162/13/6 161/14/6
f 161/14/7 162/13/7 164/15/7 163/16/7
f 163/16/8 164/15/8 166/17/8 165/18/8
f 165/18/9 166/17/9 168/19/9 167/20/9
f 167/20/10 168/19/10 170/21/10 169/22/10
f 169/22/11 170/21/11 172/23/11 171/24/11
f 171/24/12 172/23/12 174/25/12 173/26/12
f 173/26/13 174/25/13 176/27/13 175/28/13
f 175/28/14 176/27/14 178/29/14 177/30/14
f 177/30/15 178/29/15 180/31/15 179/32/15
f 179/32/16 180/31/16 182/33/16 181/34/16
f 181/34/17 182/33/17 184/35/17 183/36/17
f 183/36/18 184/35/18 186/37/18 185/38/18
f 185/38/19 186/37/19 188/39/19 187/40/19
f 187/40/20 188/39/20 190/41/20 189/42/20
f 189/42/21 190/41/21 192/43/21 191/44/21
f 191/44/22 192/43/22 194/45/22 193/46/22
f 193/46/23 194/45/23 196/47/23 195/48/23
f 195/48/24 196/47/24 198/49/24 197/50/24
f 197/50/25 198/49/25 200/51/25 199/52/25
f 199/52/26 200/51/26 202/53/26 201/54/26
f 201/54/27 202/53/27 204/55/27 203/56/27
f 203/56/28 204/55/28 206/57/28 205/58/28
f 205/58/29 206/57/29 208/59/29 207/60/29
f 207/60/30 208/59/30 210/61/30 209/62/30
f 152/63/31 150/64/31 212/65/31 210/66/31 208/67/31 206/68/31 204/69/31 202/70/31 200/71/31 198/72/31 196/73/31 194/74/31 192/75/31 190/76/31 188/77/31 186/78/31 184/79/31 182/80/31 180/81/31 178/82/31 176/83/31 174/84/31 172/85/31 170/86/31 168/87/31 166/88/31 164/89/31 162/90/31 160/91/31 158/92/31 156/93/31 154/94/31
f 209/62/32 210/61/32 212/95/32 211/96/32
f 211/96/33 212/95/33 150/97/33 149/98/33
f 149/99/34 151/100/34 153/101/34 155/102/34 157/103/34 159/104/34 161/105/34 163/106/34 165/107/34 167/108/34 169/109/34 171/110/34 173/111/34 175/112/34 177/113/34 179/114/34 181/115/34 183/116/34 185/117/34 187/118/34 189/119/34 191/120/34 193/121/34 195/122/34 197/123/34 199/124/34 201/125/34 203/126/34 205/127/34 207/128/34 209/129/34 211/130/34
usemtl Material
f 89/131/35 90/132/35 71/133/35 67/134/35
f 109/135/36 67/134/36 71/25/36 108/136/36
f 120/137/34 92/138/34 69/139/34 110/140/34
f 86/141/37 103/142/37 127/143/37 93/144/37 68/145/37 72/146/37
f 117/147/31 89/131/31 67/134/31 109/135/31
f 69/139/38 65/26/38 82/26/38 81/139/38
f 99/139/39 98/26/39 79/26/39 80/139/39
f 107/148/31 66/42/31 73/42/31 111/148/31
f 110/140/34 69/139/34 76/139/34 112/140/34
f 66/42/37 70/58/37 74/58/37 73/42/37
f 114/149/40 80/139/40 79/26/40 113/148/40
f 126/148/31 104/42/31 77/42/31 113/148/31
f 123/140/34 99/139/34 80/139/34 114/149/34
f 104/42/37 135/150/37 143/151/37 105/58/37 78/58/37 77/42/37
f 81/139/41 82/26/41 84/26/41 83/139/41
f 76/139/42 69/139/42 81/139/42 83/139/42
f 75/26/43 76/139/43 83/139/43 84/26/43
f 65/26/44 75/26/44 84/26/44 82/26/44
f 107/148/31 65/26/31 87/152/31 115/153/31
f 115/153/31 87/152/31 88/154/31 116/155/31
f 116/155/31 88/154/31 89/131/31 117/147/31
f 70/58/37 66/42/37 95/156/37 129/157/37 140/158/37 85/159/37
f 103/160/34 94/161/34 141/162/34 139/163/34
f 108/164/34 71/133/34 90/132/34 118/161/34
f 118/161/34 90/132/34 91/165/34 119/162/34
f 119/162/34 91/165/34 92/138/34 120/137/34
f 65/26/35 69/139/35 92/138/35 87/152/35
f 87/152/35 92/138/35 91/165/35 88/154/35
f 88/154/35 91/165/35 90/132/35 89/131/35
f 73/42/37 74/58/37 106/58/37 145/151/37 133/150/37 102/42/37
f 139/163/34 141/162/34 142/137/34 140/166/34
f 112/140/34 76/139/34 101/139/34 121/140/34
f 121/140/34 101/139/34 100/139/34 122/140/34
f 122/140/34 100/139/34 99/139/34 123/140/34
f 111/148/31 73/42/31 102/42/31 124/148/31
f 126/148/45 125/148/45 137/148/45 138/148/45
f 115/153/46 116/155/46 131/155/46 130/153/46
f 76/139/39 75/26/39 96/26/39 101/139/39
f 101/139/39 96/26/39 97/26/39 100/139/39
f 100/139/39 97/26/39 98/26/39 99/139/39
f 97/26/31 125/148/31 126/148/31 98/26/31
f 96/26/31 124/148/31 125/148/31 97/26/31
f 75/26/31 111/148/31 124/148/31 96/26/31
f 118/161/46 119/162/46 141/162/46 94/161/46
f 120/137/36 85/166/36 140/166/36 142/137/36
f 74/167/34 112/140/34 121/140/34 106/167/34
f 122/140/47 123/140/47 148/140/47 147/140/47
f 119/162/46 120/137/46 142/137/46 141/162/46
f 72/168/34 108/164/34 118/161/34 86/160/34
f 104/42/36 126/148/36 138/148/36 135/42/36
f 116/155/46 117/147/46 132/147/46 131/155/46
f 66/42/31 107/148/31 115/153/31 95/156/31
f 105/167/34 123/140/34 114/149/34 78/167/34
f 98/26/31 126/148/31 113/148/31 79/26/31
f 78/167/40 114/149/40 113/148/40 77/42/40
f 70/167/34 110/140/34 112/140/34 74/167/34
f 65/26/31 107/148/31 111/148/31 75/26/31
f 93/144/31 117/147/31 109/135/31 68/145/31
f 85/166/34 120/137/34 110/140/34 70/167/34
f 68/145/36 109/135/36 108/136/36 72/41/36
f 136/148/31 133/42/31 134/42/31 137/148/31
f 137/148/31 134/42/31 135/42/31 138/148/31
f 128/169/31 131/155/31 132/147/31 127/144/31
f 129/156/31 130/153/31 131/155/31 128/169/31
f 117/147/40 93/144/40 127/144/40 132/147/40
f 124/148/40 102/42/40 133/42/40 136/148/40
f 125/148/48 124/148/48 136/148/48 137/148/48
f 95/156/36 115/153/36 130/153/36 129/156/36
f 140/170/37 129/156/37 128/169/37 139/171/37
f 145/167/34 146/140/34 147/140/34 144/167/34
f 144/167/34 147/140/34 148/140/34 143/167/34
f 134/42/37 144/58/37 143/172/37 135/42/37
f 123/140/36 105/167/36 143/167/36 148/140/36
f 121/140/48 122/140/48 147/140/48 146/140/48
f 86/160/40 118/161/40 94/161/40 103/160/40
f 106/167/40 121/140/40 146/140/40 145/167/40
f 139/171/37 128/169/37 127/143/37 103/141/37
f 133/150/37 145/58/37 144/58/37 134/42/37
